<svg xmlns="http://www.w3.org/2000/svg" xmlns:xlink="http://www.w3.org/1999/xlink" width="45" zoomAndPan="magnify" viewBox="0 0 33.75 33.749998" height="45" preserveAspectRatio="xMidYMid meet" version="1.0"><defs><g/><clipPath id="6847b92f99"><path d="M 0 0 L 33.5 0 L 33.5 33.5 L 0 33.5 Z M 0 0 " clip-rule="nonzero"/></clipPath><clipPath id="55cbef3778"><rect x="0" width="34" y="0" height="34"/></clipPath></defs><g clip-path="url(#6847b92f99)"><g transform="matrix(1, 0, 0, 1, 0, -0.000000000000001048)"><g clip-path="url(#55cbef3778)"><g fill="#2e6b47" fill-opacity="1"><g transform="translate(-0.406366, 32.381478)"><g><path d="M 12.46875 0 C 14 -0.0625 15.144531 -0.453125 15.90625 -1.171875 C 16.675781 -1.890625 17.226562 -2.8125 17.5625 -3.9375 C 17.90625 -5.0625 18.175781 -6.238281 18.375 -7.46875 C 18.570312 -8.707031 18.863281 -9.882812 19.25 -11 C 19.550781 -11.8125 19.851562 -12.207031 20.15625 -12.1875 C 20.46875 -12.175781 20.773438 -11.941406 21.078125 -11.484375 C 21.390625 -11.023438 21.664062 -10.503906 21.90625 -9.921875 C 22.15625 -9.335938 22.363281 -8.863281 22.53125 -8.5 C 22.757812 -7.976562 22.992188 -7.359375 23.234375 -6.640625 C 23.484375 -5.929688 23.769531 -5.207031 24.09375 -4.46875 C 24.414062 -3.738281 24.8125 -3.113281 25.28125 -2.59375 C 25.757812 -2.070312 26.34375 -1.757812 27.03125 -1.65625 C 28.238281 -1.46875 29.175781 -1.695312 29.84375 -2.34375 C 30.507812 -3 30.992188 -3.890625 31.296875 -5.015625 C 31.609375 -6.140625 31.796875 -7.359375 31.859375 -8.671875 C 31.929688 -9.992188 31.96875 -11.265625 31.96875 -12.484375 C 31.96875 -13.710938 31.984375 -14.695312 32.015625 -15.4375 C 32.046875 -15.957031 32.125 -16.707031 32.25 -17.6875 C 32.382812 -18.664062 32.515625 -19.757812 32.640625 -20.96875 C 32.773438 -22.175781 32.84375 -23.363281 32.84375 -24.53125 C 32.84375 -25.707031 32.734375 -26.765625 32.515625 -27.703125 C 32.304688 -28.648438 31.941406 -29.367188 31.421875 -29.859375 C 30.898438 -30.347656 30.148438 -30.476562 29.171875 -30.25 C 28.035156 -29.988281 27.226562 -29.457031 26.75 -28.65625 C 26.28125 -27.863281 26.019531 -26.910156 25.96875 -25.796875 C 25.925781 -24.691406 25.953125 -23.535156 26.046875 -22.328125 C 26.148438 -21.128906 26.207031 -19.984375 26.21875 -18.890625 C 26.238281 -17.796875 26.066406 -16.890625 25.703125 -16.171875 C 25.472656 -16.628906 25.210938 -17.335938 24.921875 -18.296875 C 24.628906 -19.265625 24.300781 -20.332031 23.9375 -21.5 C 23.582031 -22.675781 23.175781 -23.816406 22.71875 -24.921875 C 22.269531 -26.035156 21.75 -26.988281 21.15625 -27.78125 C 20.570312 -28.582031 19.921875 -29.082031 19.203125 -29.28125 C 18.160156 -29.570312 17.320312 -29.414062 16.6875 -28.8125 C 16.050781 -28.207031 15.570312 -27.347656 15.25 -26.234375 C 14.925781 -25.128906 14.679688 -23.941406 14.515625 -22.671875 C 14.347656 -21.398438 14.21875 -20.226562 14.125 -19.15625 C 14.03125 -18.082031 13.898438 -17.300781 13.734375 -16.8125 C 13.472656 -17.269531 13.128906 -17.960938 12.703125 -18.890625 C 12.285156 -19.816406 11.804688 -20.859375 11.265625 -22.015625 C 10.722656 -23.171875 10.144531 -24.328125 9.53125 -25.484375 C 8.914062 -26.640625 8.269531 -27.671875 7.59375 -28.578125 C 6.925781 -29.492188 6.25 -30.171875 5.5625 -30.609375 C 4.882812 -31.054688 4.203125 -31.132812 3.515625 -30.84375 C 2.535156 -30.382812 1.914062 -29.617188 1.65625 -28.546875 C 1.394531 -27.472656 1.367188 -26.222656 1.578125 -24.796875 C 1.796875 -23.378906 2.125 -21.9375 2.5625 -20.46875 C 3 -19.007812 3.445312 -17.660156 3.90625 -16.421875 C 4.363281 -15.179688 4.707031 -14.203125 4.9375 -13.484375 C 5.164062 -12.734375 5.398438 -11.78125 5.640625 -10.625 C 5.890625 -9.46875 6.179688 -8.269531 6.515625 -7.03125 C 6.859375 -5.800781 7.289062 -4.644531 7.8125 -3.5625 C 8.34375 -2.488281 8.976562 -1.617188 9.71875 -0.953125 C 10.46875 -0.285156 11.382812 0.03125 12.46875 0 Z M 12.46875 0 "/></g></g></g></g></g></g></svg>