<svg xmlns="http://www.w3.org/2000/svg" xmlns:xlink="http://www.w3.org/1999/xlink" width="170" zoomAndPan="magnify" viewBox="0 0 127.5 37.5" height="50" preserveAspectRatio="xMidYMid meet" version="1.0"><defs><g/><clipPath id="d0dbc1cc95"><path d="M 0.59375 0 L 126 0 L 126 37.007812 L 0.59375 37.007812 Z M 0.59375 0 " clip-rule="nonzero"/></clipPath><clipPath id="5638cbdd6a"><rect x="0" width="126" y="0" height="38"/></clipPath></defs><g clip-path="url(#d0dbc1cc95)"><g transform="matrix(1, 0, 0, 1, 0.000000000000000111, -0.000000000000001478)"><g clip-path="url(#5638cbdd6a)"><g fill="#2e6b47" fill-opacity="1"><g transform="translate(0.565368, 33.876762)"><g><path d="M 12.828125 0 C 14.410156 -0.0625 15.59375 -0.460938 16.375 -1.203125 C 17.164062 -1.941406 17.738281 -2.890625 18.09375 -4.046875 C 18.445312 -5.203125 18.722656 -6.414062 18.921875 -7.6875 C 19.117188 -8.96875 19.421875 -10.179688 19.828125 -11.328125 C 20.128906 -12.160156 20.4375 -12.566406 20.75 -12.546875 C 21.070312 -12.535156 21.390625 -12.296875 21.703125 -11.828125 C 22.023438 -11.359375 22.3125 -10.820312 22.5625 -10.21875 C 22.820312 -9.613281 23.035156 -9.125 23.203125 -8.75 C 23.429688 -8.21875 23.671875 -7.582031 23.921875 -6.84375 C 24.179688 -6.101562 24.476562 -5.351562 24.8125 -4.59375 C 25.144531 -3.84375 25.554688 -3.195312 26.046875 -2.65625 C 26.535156 -2.125 27.128906 -1.8125 27.828125 -1.71875 C 29.066406 -1.507812 30.03125 -1.738281 30.71875 -2.40625 C 31.40625 -3.082031 31.910156 -4 32.234375 -5.15625 C 32.554688 -6.3125 32.75 -7.566406 32.8125 -8.921875 C 32.882812 -10.285156 32.921875 -11.597656 32.921875 -12.859375 C 32.921875 -14.117188 32.9375 -15.132812 32.96875 -15.90625 C 33 -16.4375 33.082031 -17.207031 33.21875 -18.21875 C 33.351562 -19.226562 33.488281 -20.351562 33.625 -21.59375 C 33.757812 -22.832031 33.828125 -24.054688 33.828125 -25.265625 C 33.828125 -26.472656 33.71875 -27.5625 33.5 -28.53125 C 33.28125 -29.507812 32.898438 -30.25 32.359375 -30.75 C 31.828125 -31.25 31.054688 -31.382812 30.046875 -31.15625 C 28.867188 -30.882812 28.035156 -30.335938 27.546875 -29.515625 C 27.066406 -28.691406 26.800781 -27.707031 26.75 -26.5625 C 26.695312 -25.425781 26.71875 -24.238281 26.8125 -23 C 26.914062 -21.757812 26.976562 -20.578125 27 -19.453125 C 27.019531 -18.328125 26.84375 -17.394531 26.46875 -16.65625 C 26.238281 -17.125 25.972656 -17.851562 25.671875 -18.84375 C 25.367188 -19.832031 25.03125 -20.929688 24.65625 -22.140625 C 24.289062 -23.347656 23.875 -24.519531 23.40625 -25.65625 C 22.9375 -26.800781 22.398438 -27.785156 21.796875 -28.609375 C 21.191406 -29.429688 20.519531 -29.941406 19.78125 -30.140625 C 18.707031 -30.441406 17.84375 -30.28125 17.1875 -29.65625 C 16.53125 -29.039062 16.035156 -28.160156 15.703125 -27.015625 C 15.367188 -25.878906 15.117188 -24.65625 14.953125 -23.34375 C 14.785156 -22.039062 14.648438 -20.832031 14.546875 -19.71875 C 14.441406 -18.613281 14.304688 -17.8125 14.140625 -17.3125 C 13.867188 -17.78125 13.515625 -18.492188 13.078125 -19.453125 C 12.648438 -20.410156 12.15625 -21.484375 11.59375 -22.671875 C 11.039062 -23.859375 10.445312 -25.046875 9.8125 -26.234375 C 9.175781 -27.429688 8.515625 -28.5 7.828125 -29.4375 C 7.140625 -30.375 6.441406 -31.066406 5.734375 -31.515625 C 5.035156 -31.972656 4.332031 -32.050781 3.625 -31.75 C 2.613281 -31.28125 1.972656 -30.492188 1.703125 -29.390625 C 1.441406 -28.285156 1.421875 -27.003906 1.640625 -25.546875 C 1.859375 -24.085938 2.191406 -22.601562 2.640625 -21.09375 C 3.097656 -19.582031 3.5625 -18.1875 4.03125 -16.90625 C 4.5 -15.632812 4.847656 -14.628906 5.078125 -13.890625 C 5.316406 -13.117188 5.5625 -12.132812 5.8125 -10.9375 C 6.0625 -9.75 6.363281 -8.515625 6.71875 -7.234375 C 7.070312 -5.960938 7.515625 -4.773438 8.046875 -3.671875 C 8.585938 -2.566406 9.242188 -1.671875 10.015625 -0.984375 C 10.785156 -0.296875 11.722656 0.03125 12.828125 0 Z M 12.828125 0 "/></g></g></g><g fill="#2e6b47" fill-opacity="1"><g transform="translate(33.782484, 33.876762)"><g><path d="M 2.96875 -1.359375 C 3.4375 -0.785156 4.238281 -0.398438 5.375 -0.203125 C 6.519531 -0.00390625 7.8125 0.046875 9.25 -0.046875 C 10.695312 -0.148438 12.140625 -0.367188 13.578125 -0.703125 C 15.023438 -1.035156 16.296875 -1.445312 17.390625 -1.9375 C 18.484375 -2.425781 19.226562 -2.9375 19.625 -3.46875 C 20.5625 -4.75 21.054688 -5.789062 21.109375 -6.59375 C 21.160156 -7.394531 20.890625 -8.003906 20.296875 -8.421875 C 19.710938 -8.847656 18.941406 -9.132812 17.984375 -9.28125 C 17.035156 -9.4375 16.003906 -9.503906 14.890625 -9.484375 C 13.785156 -9.472656 12.738281 -9.429688 11.75 -9.359375 C 10.757812 -9.296875 9.945312 -9.242188 9.3125 -9.203125 C 8.8125 -9.273438 8.507812 -9.492188 8.40625 -9.859375 C 8.300781 -10.234375 8.320312 -10.671875 8.46875 -11.171875 C 8.625 -11.671875 8.84375 -12.144531 9.125 -12.59375 C 9.414062 -13.050781 9.695312 -13.382812 9.96875 -13.59375 C 10.707031 -14.195312 11.546875 -14.597656 12.484375 -14.796875 C 13.421875 -14.992188 14.347656 -15.203125 15.265625 -15.421875 C 16.191406 -15.640625 16.992188 -16.085938 17.671875 -16.765625 C 18.535156 -17.628906 18.910156 -18.285156 18.796875 -18.734375 C 18.679688 -19.191406 18.242188 -19.519531 17.484375 -19.71875 C 16.734375 -19.925781 15.851562 -20.078125 14.84375 -20.171875 C 13.84375 -20.273438 12.878906 -20.410156 11.953125 -20.578125 C 11.023438 -20.742188 10.328125 -21.007812 9.859375 -21.375 C 9.390625 -21.75 9.320312 -22.320312 9.65625 -23.09375 C 9.957031 -23.738281 10.535156 -24.21875 11.390625 -24.53125 C 12.253906 -24.851562 13.210938 -25.125 14.265625 -25.34375 C 15.328125 -25.5625 16.328125 -25.820312 17.265625 -26.125 C 18.203125 -26.425781 18.921875 -26.867188 19.421875 -27.453125 C 19.929688 -28.035156 20.035156 -28.882812 19.734375 -30 C 19.597656 -30.5625 19.160156 -30.984375 18.421875 -31.265625 C 17.679688 -31.554688 16.789062 -31.753906 15.75 -31.859375 C 14.707031 -31.960938 13.640625 -32.003906 12.546875 -31.984375 C 11.460938 -31.960938 10.484375 -31.914062 9.609375 -31.84375 C 8.734375 -31.78125 8.097656 -31.734375 7.703125 -31.703125 C 6.628906 -31.671875 5.671875 -31.578125 4.828125 -31.421875 C 3.992188 -31.273438 3.34375 -30.914062 2.875 -30.34375 C 2.40625 -29.78125 2.171875 -28.875 2.171875 -27.625 C 2.128906 -25.75 2.082031 -23.867188 2.03125 -21.984375 C 1.988281 -20.109375 1.945312 -18.234375 1.90625 -16.359375 C 1.90625 -15.484375 1.847656 -14.359375 1.734375 -12.984375 C 1.617188 -11.609375 1.539062 -10.171875 1.5 -8.671875 C 1.46875 -7.179688 1.550781 -5.78125 1.75 -4.46875 C 1.957031 -3.164062 2.363281 -2.128906 2.96875 -1.359375 Z M 2.96875 -1.359375 "/></g></g></g><g fill="#2e6b47" fill-opacity="1"><g transform="translate(54.26637, 33.876762)"><g><path d="M 0.203125 0.40625 C 0.566406 1.539062 0.992188 2.191406 1.484375 2.359375 C 1.972656 2.523438 2.484375 2.382812 3.015625 1.9375 C 3.554688 1.488281 4.066406 0.898438 4.546875 0.171875 C 5.035156 -0.546875 5.457031 -1.25 5.8125 -1.9375 C 6.164062 -2.625 6.410156 -3.117188 6.546875 -3.421875 C 6.773438 -3.992188 7.316406 -4.410156 8.171875 -4.671875 C 9.035156 -4.941406 10.003906 -5.078125 11.078125 -5.078125 C 12.148438 -5.078125 13.15625 -4.984375 14.09375 -4.796875 C 15.03125 -4.617188 15.71875 -4.378906 16.15625 -4.078125 C 16.488281 -3.835938 16.851562 -3.441406 17.25 -2.890625 C 17.65625 -2.335938 18.082031 -1.785156 18.53125 -1.234375 C 18.988281 -0.679688 19.441406 -0.269531 19.890625 0 C 20.347656 0.269531 20.796875 0.253906 21.234375 -0.046875 C 21.671875 -0.347656 22.078125 -1.085938 22.453125 -2.265625 C 22.679688 -2.972656 22.753906 -4.078125 22.671875 -5.578125 C 22.585938 -7.085938 22.378906 -8.832031 22.046875 -10.8125 C 21.710938 -12.800781 21.285156 -14.828125 20.765625 -16.890625 C 20.242188 -18.953125 19.65625 -20.90625 19 -22.75 C 18.34375 -24.59375 17.65625 -26.148438 16.9375 -27.421875 C 16.21875 -28.703125 15.488281 -29.507812 14.75 -29.84375 C 14.007812 -30.144531 13.253906 -29.96875 12.484375 -29.3125 C 11.710938 -28.65625 10.941406 -27.695312 10.171875 -26.4375 C 9.398438 -25.1875 8.664062 -23.796875 7.96875 -22.265625 C 7.28125 -20.742188 6.644531 -19.234375 6.0625 -17.734375 C 5.476562 -16.242188 4.992188 -14.941406 4.609375 -13.828125 C 4.222656 -12.722656 3.945312 -11.988281 3.78125 -11.625 C 3.476562 -10.882812 3.082031 -10.003906 2.59375 -8.984375 C 2.101562 -7.960938 1.625 -6.878906 1.15625 -5.734375 C 0.6875 -4.597656 0.34375 -3.492188 0.125 -2.421875 C -0.09375 -1.347656 -0.0664062 -0.40625 0.203125 0.40625 Z M 10.96875 -10.46875 C 10.0625 -10.4375 9.554688 -10.644531 9.453125 -11.09375 C 9.359375 -11.550781 9.492188 -12.113281 9.859375 -12.78125 C 10.234375 -13.457031 10.671875 -14.101562 11.171875 -14.71875 C 11.671875 -15.34375 12.070312 -15.785156 12.375 -16.046875 C 12.476562 -15.953125 12.65625 -15.710938 12.90625 -15.328125 C 13.15625 -14.941406 13.378906 -14.488281 13.578125 -13.96875 C 13.785156 -13.445312 13.875 -12.925781 13.84375 -12.40625 C 13.8125 -11.882812 13.582031 -11.445312 13.15625 -11.09375 C 12.738281 -10.738281 12.007812 -10.53125 10.96875 -10.46875 Z M 10.96875 -10.46875 "/></g></g></g><g fill="#2e6b47" fill-opacity="1"><g transform="translate(76.360786, 33.876762)"><g><path d="M 6.34375 -0.15625 C 7.28125 -0.382812 7.929688 -0.847656 8.296875 -1.546875 C 8.671875 -2.253906 8.90625 -3.0625 9 -3.96875 C 9.101562 -4.875 9.171875 -5.695312 9.203125 -6.4375 C 9.273438 -7.25 9.492188 -7.957031 9.859375 -8.5625 C 10.234375 -9.164062 10.6875 -9.484375 11.21875 -9.515625 C 11.757812 -9.546875 12.28125 -9.078125 12.78125 -8.109375 C 13.320312 -7.066406 13.925781 -6.066406 14.59375 -5.109375 C 15.269531 -4.148438 16.023438 -3.269531 16.859375 -2.46875 C 18.171875 -1.226562 19.296875 -0.582031 20.234375 -0.53125 C 21.171875 -0.476562 21.878906 -0.828125 22.359375 -1.578125 C 22.847656 -2.335938 23.0625 -3.300781 23 -4.46875 C 22.9375 -5.644531 22.550781 -6.835938 21.84375 -8.046875 C 21.675781 -8.390625 21.398438 -8.800781 21.015625 -9.28125 C 20.628906 -9.769531 20.257812 -10.273438 19.90625 -10.796875 C 19.550781 -11.316406 19.320312 -11.8125 19.21875 -12.28125 C 19.125 -12.75 19.242188 -13.132812 19.578125 -13.4375 C 20.347656 -14.070312 21.019531 -14.785156 21.59375 -15.578125 C 22.164062 -16.367188 22.648438 -17.195312 23.046875 -18.0625 C 24.160156 -20.476562 24.539062 -22.582031 24.1875 -24.375 C 23.832031 -26.175781 22.984375 -27.671875 21.640625 -28.859375 C 20.296875 -30.054688 18.648438 -30.960938 16.703125 -31.578125 C 14.765625 -32.203125 12.726562 -32.535156 10.59375 -32.578125 C 8.457031 -32.628906 6.4375 -32.40625 4.53125 -31.90625 C 4.363281 -31.875 4.347656 -31.859375 4.484375 -31.859375 C 3.472656 -31.691406 2.75 -31.179688 2.3125 -30.328125 C 1.875 -29.472656 1.628906 -28.445312 1.578125 -27.25 C 1.535156 -26.0625 1.554688 -24.890625 1.640625 -23.734375 C 1.722656 -22.578125 1.78125 -21.609375 1.8125 -20.828125 C 1.914062 -17.847656 1.929688 -14.863281 1.859375 -11.875 C 1.796875 -8.882812 1.878906 -5.914062 2.109375 -2.96875 C 2.179688 -1.726562 2.617188 -0.878906 3.421875 -0.421875 C 4.222656 0.0234375 5.195312 0.113281 6.34375 -0.15625 Z M 9.765625 -13.640625 C 9.796875 -14.046875 9.8125 -14.695312 9.8125 -15.59375 C 9.8125 -16.5 9.84375 -17.4375 9.90625 -18.40625 C 9.976562 -19.382812 10.125 -20.226562 10.34375 -20.9375 C 10.5625 -21.644531 10.890625 -22.015625 11.328125 -22.046875 C 12.097656 -22.109375 12.953125 -22.179688 13.890625 -22.265625 C 14.828125 -22.347656 15.613281 -22.125 16.25 -21.59375 C 16.894531 -21.050781 17.140625 -20.453125 16.984375 -19.796875 C 16.835938 -19.148438 16.453125 -18.488281 15.828125 -17.8125 C 15.203125 -17.144531 14.476562 -16.515625 13.65625 -15.921875 C 12.84375 -15.335938 12.066406 -14.84375 11.328125 -14.4375 C 10.585938 -14.039062 10.066406 -13.773438 9.765625 -13.640625 Z M 9.765625 -13.640625 "/></g></g></g><g fill="#2e6b47" fill-opacity="1"><g transform="translate(100.015398, 33.876762)"><g><path d="M 18.875 -2.609375 C 20.113281 -3.816406 21.191406 -5.398438 22.109375 -7.359375 C 23.035156 -9.328125 23.742188 -11.4375 24.234375 -13.6875 C 24.722656 -15.9375 24.957031 -18.132812 24.9375 -20.28125 C 24.914062 -22.425781 24.585938 -24.304688 23.953125 -25.921875 C 23.953125 -26.191406 23.773438 -26.675781 23.421875 -27.375 C 23.078125 -28.082031 22.550781 -28.847656 21.84375 -29.671875 C 21.132812 -30.492188 20.25 -31.195312 19.1875 -31.78125 C 18.132812 -32.363281 16.910156 -32.679688 15.515625 -32.734375 C 14.128906 -32.785156 12.546875 -32.394531 10.765625 -31.5625 C 8.921875 -30.6875 7.34375 -29.507812 6.03125 -28.03125 C 4.726562 -26.550781 3.707031 -24.878906 2.96875 -23.015625 C 2.226562 -21.160156 1.773438 -19.234375 1.609375 -17.234375 C 1.441406 -15.242188 1.5625 -13.289062 1.96875 -11.375 C 2.300781 -9.925781 2.859375 -8.476562 3.640625 -7.03125 C 4.429688 -5.59375 5.394531 -4.296875 6.53125 -3.140625 C 7.675781 -1.984375 8.925781 -1.117188 10.28125 -0.546875 C 11.644531 0.015625 13.054688 0.164062 14.515625 -0.09375 C 15.972656 -0.363281 17.425781 -1.203125 18.875 -2.609375 Z M 11.71875 -5.328125 C 10.75 -5.734375 10.046875 -6.394531 9.609375 -7.3125 C 9.171875 -8.238281 8.9375 -9.269531 8.90625 -10.40625 C 8.875 -11.550781 8.957031 -12.671875 9.15625 -13.765625 C 9.363281 -14.859375 9.617188 -15.769531 9.921875 -16.5 C 10.148438 -17.144531 10.484375 -17.859375 10.921875 -18.640625 C 11.359375 -19.429688 11.878906 -20.15625 12.484375 -20.8125 C 13.085938 -21.46875 13.757812 -21.90625 14.5 -22.125 C 15.238281 -22.34375 16.023438 -22.195312 16.859375 -21.6875 C 17.703125 -21.21875 18.273438 -20.445312 18.578125 -19.375 C 18.878906 -18.300781 18.976562 -17.078125 18.875 -15.703125 C 18.769531 -14.328125 18.507812 -12.953125 18.09375 -11.578125 C 17.675781 -10.203125 17.140625 -8.976562 16.484375 -7.90625 C 15.828125 -6.832031 15.085938 -6.039062 14.265625 -5.53125 C 13.441406 -5.03125 12.59375 -4.960938 11.71875 -5.328125 Z M 11.71875 -5.328125 "/></g></g></g></g></g></g></svg>